<?xml version="1.0" encoding="utf-8"?>
<!DOCTYPE svg PUBLIC "-//W3C//DTD SVG 20010904//EN" "http://www.w3.org/TR/2001/REC-SVG-20010904/DTD/svg10.dtd">
<svg version="1.0" xmlns="http://www.w3.org/2000/svg" width="300px" height="300px" viewBox="0 0 300 300" preserveAspectRatio="xMidYMid meet">
 <g fill="#000000">
  <path d="M139.3 298.9 c-26.2 -2 -52.4 -11.6 -75.2 -27.2 -10.1 -7 -25.8 -22.2 -33.7 -32.7 -11.4 -15.1 -22.9 -40.8 -26.9 -60.3 -6.6 -32.9 -3.5 -64.6 9.1 -91.6 19.9 -42.7 60.3 -73.4 110.7 -84.3 14.6 -3.1 42.6 -3.1 57.3 0 66.9 14.3 113.8 67.4 118.3 133.8 3.2 48.1 -11.1 88.7 -42.4 119.9 -11.8 11.9 -22.3 19.4 -37 26.8 -25.1 12.4 -52.6 17.8 -80.2 15.6z m2.3 -80.7 c-0.7 -0.6 -24.6 4.3 -34.3 7.1 -7.3 2.1 -7.8 2.4 -7.6 4.9 0.4 5.6 17.9 38.8 26.8 50.8 2.3 3.2 3.1 3.5 8.8 4 l6.2 0.5 0.3 -33.4 c0.1 -18.4 0 -33.6 -0.2 -33.9z m33.6 59.5 c4.5 -6.6 17.9 -32 23.1 -43.9 l2.6 -5.7 -9.5 -3.1 c-10.1 -3.2 -24.2 -6 -30.5 -6 l-3.9 0 0 33 0 33.1 6.7 -0.3 6.8 -0.3 4.7 -6.8z m-69.4 -5.9 c-4.4 -7.3 -17.7 -33.2 -19 -36.9 -0.6 -1.6 -10.4 3.2 -22.2 10.8 l-7 4.5 2.8 2.2 c19.5 14.5 28.3 19.8 41.5 24.7 4.2 1.5 7.9 2.8 8.3 2.9 0.3 0 -1.6 -3.7 -4.4 -8.2z m95.6 4 c12.9 -4.2 28.2 -13.5 36.5 -22.2 3.4 -3.5 3.4 -3.6 1.5 -5 -3.2 -2.4 -26.4 -14.9 -26.9 -14.5 -0.2 0.2 -2.6 5.9 -5.4 12.7 -4.6 11.3 -13.9 28.3 -16.2 29.7 -0.5 0.4 -0.9 1.1 -0.9 1.6 0 1.1 2.9 0.5 11.4 -2.3z m-143.8 -41.1 c5.4 -2.9 13.2 -6.8 17.2 -8.7 3.9 -1.8 7.2 -3.4 7.2 -3.6 0 -0.2 -0.8 -2.5 -1.9 -5.1 -5.9 -15 -12.1 -40.9 -12.1 -50.7 0 -2.8 -0.3 -6.1 -0.6 -7.4 l-0.6 -2.2 -26.2 0.2 -26.1 0.3 0.3 6 c1.3 23.8 12.8 52.8 28.5 71.8 2.1 2.6 4 4.7 4.1 4.7 0.1 0 4.7 -2.4 10.2 -5.3z m204.9 -7.7 c12.4 -18.8 22.5 -48.1 22.5 -65.6 l0 -4.4 -26 0 -26 0 0 4.9 c0 8.4 -3.9 25.8 -9.6 43 -3 9 -5.1 16.7 -4.7 17.1 0.4 0.4 7.1 4 14.8 8 7.7 4 14.9 7.9 16 8.6 1.7 1.2 2.3 1 5.3 -1.9 1.8 -1.7 5.3 -6.1 7.7 -9.7z m-157.1 -13.5 c10.9 -3.6 28.2 -7.5 33.5 -7.5 l3.1 0 0 -24.5 0 -24.5 -31.1 0 -31.1 0 0.7 6.3 c1.1 9.5 4.3 25.8 7.1 35.4 2.5 8.5 6.2 18.3 7.1 18.3 0.2 0 5.1 -1.6 10.7 -3.5z m104.9 -10.3 c4.9 -15 7.3 -25.8 8.3 -38.2 l0.7 -8 -31.2 0 -31.1 0 0 24.4 0 24.3 6.9 0.7 c9.3 0.9 26.2 4.9 34.1 7.9 3.6 1.4 6.8 2.6 7.2 2.6 0.3 0.1 2.6 -6.1 5.1 -13.7z m-142 -70.3 c0.9 -12.6 5 -31.6 9.2 -43.5 2 -5.4 3.8 -10.6 4.1 -11.4 0.4 -1.1 -2.4 -2.8 -10.6 -6.4 -6.1 -2.7 -13.8 -6.6 -17.1 -8.7 -3.3 -2.2 -6.2 -3.9 -6.5 -3.9 -0.2 0 -1.9 1.6 -3.7 3.6 -14.9 17 -26.6 45.7 -29.3 72.7 l-0.7 6.7 27 0 27 0 0.6 -9.1z m73.7 -15.3 l0 -24.4 -5.7 -0.6 c-8.5 -1 -24.7 -5 -34.1 -8.5 -9.6 -3.5 -8.4 -4.5 -13.6 11 -4.1 12.4 -7.1 26.9 -8.1 38.7 l-0.7 8.2 31.1 0 31.1 0 0 -24.4z m76.6 16.2 c-0.4 -4.6 -1.6 -12.8 -2.7 -18.3 -1.9 -9.6 -8 -30.7 -9.7 -33.2 -0.5 -0.8 -3.4 -0.2 -10.7 2.3 -11.6 4.1 -23.4 7 -32.2 7.9 l-6.3 0.7 0 24.4 0 24.4 31.1 0 31.2 0 -0.7 -8.2z m66.4 4.3 c0 -5.5 -2.5 -19.2 -5.5 -29.6 -4.6 -16.4 -20.4 -44.3 -27.5 -48.8 -1.2 -0.7 -3 0 -7 2.6 -3 1.9 -10.2 5.8 -16 8.7 -5.8 2.9 -10.7 5.4 -10.9 5.6 -0.2 0.1 1.1 4.2 2.7 9.1 5.8 16.8 11.2 41.5 11.2 51.4 l0 4.9 26.5 0 26.5 0 0 -3.9z m-143 -91.1 l0 -32 -5.3 0 c-3 0 -6.2 0.6 -7.3 1.5 -5.2 3.6 -30.4 47.3 -30.4 52.6 0 1.2 2.4 2.3 10.3 4.3 12.4 3.2 23.9 5.4 29 5.5 l3.7 0.1 0 -32z m31.5 30.5 c11.8 -1.8 22.4 -4.8 25.4 -7.2 l2.1 -1.8 -6.7 -13.5 c-6.2 -12.4 -16.5 -29 -22.6 -36.4 -2.1 -2.6 -3.2 -3 -8.5 -3.4 l-6.2 -0.4 0 32.1 0 32.1 3.3 0 c1.7 0 7.7 -0.7 13.2 -1.5z m50.6 -17.6 c9.5 -5.2 16.8 -9.9 16.9 -11 0 -1 -14.4 -11.4 -22.8 -16.3 -8.3 -4.8 -29.2 -13.9 -30.1 -13.1 -0.2 0.3 0.5 1.5 1.6 2.8 5 5.2 18.8 30.2 22.1 39.6 0.6 1.7 1.5 3.1 2 3.1 0.5 0 5.1 -2.3 10.3 -5.1z m-137.1 3 c0 -2.2 10.9 -23.9 16.8 -33.2 3.3 -5.3 5.9 -9.7 5.7 -9.7 -1.6 0 -19.4 6.9 -25 9.7 -10.3 5.2 -26.5 16.9 -26.5 19.2 0 0.9 14 9.2 21.1 12.6 5.9 2.7 7.9 3.1 7.9 1.4z"/>
 </g>
</svg>