<?xml version="1.0" encoding="UTF-8" standalone="no"?>
<svg
   xmlns:dc="http://purl.org/dc/elements/1.1/"
   xmlns:cc="http://creativecommons.org/ns#"
   xmlns:rdf="http://www.w3.org/1999/02/22-rdf-syntax-ns#"
   xmlns:svg="http://www.w3.org/2000/svg"
   xmlns="http://www.w3.org/2000/svg"
   xmlns:sodipodi="http://sodipodi.sourceforge.net/DTD/sodipodi-0.dtd"
   xmlns:inkscape="http://www.inkscape.org/namespaces/inkscape"
   version="1.0"
   width="570.53497"
   height="110"
   viewBox="0 0 570.53497 110"
   preserveAspectRatio="xMidYMid meet"
   id="svg32"
   sodipodi:docname="NetAIMLogo.svg"
   inkscape:version="1.0.2-2 (e86c870879, 2021-01-15)">
  <metadata
     id="metadata38">
    <rdf:RDF>
      <cc:Work
         rdf:about="">
        <dc:format>image/svg+xml</dc:format>
        <dc:type
           rdf:resource="http://purl.org/dc/dcmitype/StillImage" />
        <dc:title></dc:title>
      </cc:Work>
    </rdf:RDF>
  </metadata>
  <defs
     id="defs36" />
  <sodipodi:namedview
     pagecolor="#ffffff"
     bordercolor="#666666"
     borderopacity="1"
     objecttolerance="10"
     gridtolerance="10"
     guidetolerance="10"
     inkscape:pageopacity="0"
     inkscape:pageshadow="2"
     inkscape:window-width="1920"
     inkscape:window-height="1017"
     id="namedview34"
     showgrid="false"
     fit-margin-top="5"
     fit-margin-left="10"
     fit-margin-right="10"
     fit-margin-bottom="5"
     inkscape:zoom="1.8640351"
     inkscape:cx="249.6679"
     inkscape:cy="23.023835"
     inkscape:window-x="1912"
     inkscape:window-y="-8"
     inkscape:window-maximized="1"
     inkscape:current-layer="svg32"
     lock-margins="false" />
  <g
     fill="#2eb872"
     id="g30"
     transform="matrix(0.87740402,0,0,0.87757126,9.1643432,5.0433999)">
    <path
       d="M 44.7,112.4 C 24.7,107.6 7.1,90.3 2.5,70.9 -1.9,52 3.2,32.3 16.3,18.4 30,3.7 50.7,-2.9 70.2,1.1 c 19.8,4.1 38.1,21.7 43.3,41.5 1.9,7.5 1.9,21.3 0,28.8 -5.2,19.8 -23.5,37.4 -43.3,41.5 -7.1,1.5 -18.4,1.3 -25.5,-0.5 z m 23.5,-5.5 C 91.5,102.1 109,80.8 109,57 109,27.7 83.2,3.8 54.2,6.3 23.7,8.8 1.9,37.7 8.1,67.2 c 5.7,27.2 33,45.3 60.1,39.7 z"
       id="path2" />
    <path
       d="M 44.2,99.8 C 43.6,99.2 43,96.9 43,94.8 V 91 H 38 C 33.9,91 32.4,90.5 30.5,88.5 28.2,86.3 28,85.3 28,77 v -9 h -3 c -4.5,0 -4.8,-2.4 -1.2,-9 2.2,-4 3.5,-8.1 4.3,-13.6 1.3,-10.1 4.6,-17.2 10.3,-22.7 6.5,-6.4 12.5,-8.9 22.1,-9.5 11,-0.6 17.9,2 25.6,9.7 11.7,11.7 13.5,29.4 4.5,42.8 -2.3,3.3 -2.6,4.8 -2.6,11.9 0,5.3 -0.4,8.5 -1.2,9.1 -1,0.8 -34.7,12.5 -40.3,14.1 -0.6,0.1 -1.6,-0.3 -2.3,-1 z M 65.8,67.9 c 0.4,-3.6 6.5,-5.9 9.2,-3.4 1.7,1.6 2,1.5 3.9,-0.4 2.5,-2.5 2.6,-3.4 0.7,-5 -2.3,-1.9 0.9,-9.1 4.1,-9.1 2,0 2.3,-0.5 2.3,-3.5 0,-3.1 -0.3,-3.5 -2.5,-3.5 -1.9,0 -2.8,-0.8 -4,-3.7 -1.4,-3.3 -1.4,-3.8 0.1,-5.5 1.6,-1.7 1.6,-1.9 -0.1,-3.8 -2.1,-2.4 -3.8,-2.5 -5.4,-0.6 -1.8,2.1 -7.4,-0.4 -8.1,-3.6 -0.4,-1.7 -1.4,-2.4 -3.7,-2.6 -2.6,-0.3 -3.2,0.1 -3.5,2 -0.2,1.5 -1.6,2.9 -3.8,4 -3,1.4 -3.7,1.4 -5.1,0.2 -2.1,-1.9 -3.3,-1.8 -5.4,0.6 -1.7,1.9 -1.7,2.1 -0.1,3.8 1.5,1.7 1.5,2.2 0.1,5.5 -1,2.4 -2.2,3.7 -3.7,3.9 -1.8,0.2 -2.4,1.1 -2.6,3.6 -0.3,2.8 -0.1,3.2 2.2,3.2 2,0 2.9,0.8 4.1,3.7 1.4,3.3 1.4,3.8 -0.2,5.5 -1.5,1.7 -1.5,2 0.7,4.3 2.2,2.3 2.5,2.4 4.1,0.9 1.7,-1.5 2.2,-1.5 5.6,-0.1 2.9,1.1 3.9,2.1 4.1,4.1 0.3,2.4 0.7,2.7 3.5,2.4 2.6,-0.2 3.3,-0.8 3.5,-2.9 z"
       id="path4" />
    <path
       d="m 63,56.6 c 0,-3.2 0.3,-3.6 2.5,-3.6 2.5,0 2.5,0.1 1,2.9 -2.3,4.5 -3.5,4.7 -3.5,0.7 z"
       id="path6" />
    <path
       d="M 53.9,57.8 C 53.1,57.1 51.8,55.7 51.1,54.8 49.9,53.2 50,53 51.6,53 c 1.1,0 2.7,1.4 3.6,3 1.8,3.1 1.2,3.9 -1.3,1.8 z"
       id="path8" />
    <path
       d="m 58.2,57 c -1.7,-2.8 -1.5,-4 0.8,-4 1.6,0 2,0.7 2,3 0,3.5 -1,3.8 -2.8,1 z"
       id="path10" />
    <path
       d="m 68,58.5 c 0,-1.9 2.7,-5.5 4.2,-5.5 2.4,0 2.3,1.2 -0.5,3.8 -2.2,2.1 -3.7,2.8 -3.7,1.7 z"
       id="path12" />
    <path
       d="M 48.4,48.5 C 47.6,45.1 48.5,43 51,43 c 1.7,0 2,0.6 2,4 0,3.3 -0.3,4 -2,4 -1.3,0 -2.2,-0.9 -2.6,-2.5 z"
       id="path14" />
    <path
       d="m 55.4,48.5 c -0.9,-3.6 0.2,-5.5 3.1,-5.5 2.3,0 2.5,0.4 2.5,4 0,3.6 -0.3,4 -2.5,4 -1.8,0 -2.6,-0.7 -3.1,-2.5 z"
       id="path16" />
    <path
       d="m 63,47 c 0,-3.8 0.2,-4 3,-4 2.8,0 3,0.2 3,4 0,3.8 -0.2,4 -3,4 -2.8,0 -3,-0.2 -3,-4 z"
       id="path18" />
    <path
       d="m 71,47.1 c 0,-3.7 0.2,-4.1 2.6,-4.1 2.3,0 2.5,0.3 2.2,3.8 -0.2,3 -0.7,3.8 -2.5,4 C 71.2,51.1 71,50.7 71,47.1 Z"
       id="path20" />
    <path
       d="m 50.6,40.1 c -0.6,-1 4.1,-5.7 4.9,-4.9 0.3,0.3 0,1.7 -0.6,3.2 -1.2,2.6 -3.3,3.4 -4.3,1.7 z"
       id="path22" />
    <path
       d="m 57,39.7 c 0,-0.8 0.9,-2.5 2,-3.8 l 2,-2.4 -0.2,3.5 c -0.2,2.4 -0.8,3.6 -2,3.8 C 57.7,41 57,40.5 57,39.7 Z"
       id="path24" />
    <path
       d="M 63.7,40.3 C 63.3,40 63,38.3 63,36.6 l 0.1,-3.1 2.4,2.8 C 68,39.1 68,41 65.6,41 64.9,41 64,40.7 63.7,40.3 Z"
       id="path26" />
    <path
       d="m 69.5,38 c -1.8,-3.6 -0.7,-3.9 2.3,-0.7 2.6,2.7 2.8,3.7 0.7,3.7 -0.8,0 -2.1,-1.3 -3,-3 z"
       id="path28" />
  </g>
  <text
     xml:space="preserve"
     style="font-style:normal;font-weight:normal;font-size:42.6667px;line-height:1.25;font-family:sans-serif;fill:#000000;fill-opacity:1;stroke:none"
     x="120"
     y="56.020855"
     id="text42"><tspan
       sodipodi:role="line"
       id="tspan40"
       x="120"
       y="56.020855"
       style="fill:#ffffff;fill-opacity:0.5">Net.A.I.M</tspan><tspan
       sodipodi:role="line"
       x="120"
       y="109.35423"
       id="tspan44"
       style="fill:#ffffff;fill-opacity:0.5" /></text>
  <text
     xml:space="preserve"
     style="font-style:normal;font-weight:normal;font-size:17.3333px;line-height:1.25;font-family:sans-serif;fill:#000000;fill-opacity:1;stroke:none"
     x="120"
     y="74.895805"
     id="text48"><tspan
       sodipodi:role="line"
       id="tspan46"
       x="120"
       y="74.895805"
       style="font-size:17.3333px;fill:#ffffff;fill-opacity:0.501961">THE NETWORK ASSET IDENTIFICATION MANAGER</tspan></text>
</svg>
